<mxfile host="65bd71144e">
    <diagram id="fKrAsTmbO7yQ4ZSsMiP8" name="ページ1">
        <mxGraphModel dx="745" dy="503" grid="1" gridSize="10" guides="1" tooltips="1" connect="1" arrows="1" fold="1" page="1" pageScale="1" pageWidth="827" pageHeight="1169" math="0" shadow="0">
            <root>
                <mxCell id="0"/>
                <mxCell id="1" parent="0"/>
                <mxCell id="3" value="" style="verticalLabelPosition=bottom;shadow=0;dashed=0;align=center;html=1;verticalAlign=top;shape=mxgraph.electrical.transistors.npn_transistor_1;aspect=fixed;fillColor=none;" vertex="1" parent="1">
                    <mxGeometry x="12" width="228" height="240" as="geometry"/>
                </mxCell>
                <mxCell id="4" value="B" style="text;html=1;align=center;verticalAlign=middle;whiteSpace=wrap;rounded=0;fontSize=18;" vertex="1" parent="1">
                    <mxGeometry x="10" y="110" width="40" height="40" as="geometry"/>
                </mxCell>
                <mxCell id="5" value="C" style="text;html=1;align=center;verticalAlign=middle;whiteSpace=wrap;rounded=0;fontSize=18;" vertex="1" parent="1">
                    <mxGeometry x="160" width="40" height="40" as="geometry"/>
                </mxCell>
                <mxCell id="6" value="E" style="text;html=1;align=center;verticalAlign=middle;whiteSpace=wrap;rounded=0;fontSize=18;" vertex="1" parent="1">
                    <mxGeometry x="160" y="200" width="40" height="40" as="geometry"/>
                </mxCell>
            </root>
        </mxGraphModel>
    </diagram>
</mxfile>